<?xml version="1.0" encoding="UTF-8"?>
<svg id="Layer_2" xmlns="http://www.w3.org/2000/svg" viewBox="0 0 937.98 937.98">
  <defs>
    <style>
      .cls-1 {
        fill: #ffbf00;
      }

      .cls-2 {
        fill: #251f4d;
      }

      .cls-3 {
        fill: #fff;
        stroke: #251f4d;
        stroke-linecap: round;
        stroke-width: 10px;
      }
    </style>
  </defs>
  <g id="Sello_sin_texto">
    <circle id="Fondo" class="cls-2" cx="468.99" cy="468.99" r="468.99"/>
    <g id="Logo">
      <g id="Estrella_de_la_vida">
        <path id="Estrella" class="cls-3" d="M398.77,135.88h140.43v125.09l108.33-62.54,70.21,121.62-108.33,62.54,108.33,62.54-70.22,121.62-108.33-62.54v125.09h-140.43v-125.09l-108.33,62.54-70.21-121.62,108.33-62.54-108.33-62.54,70.21-121.62,108.33,62.54v-125.09Z"/>
        <g id="Cruz_del_desierto">
          <path id="Cruz" class="cls-2" d="M481.32,214.63h-24.67v48.39h-38.9v19.93h38.9v272.32h24.67v-272.32h39.85v-19.93h-39.85v-48.39Z"/>
          <g id="Serpiente">
            <path id="Cola_4" class="cls-1" d="M482.75,534.4c-5.31,3.8-9.49.63-10.91-1.42l9.49-9.01v-11.86c11.39,10.44,8.07,17.56,1.42,22.3Z"/>
            <path id="_x33_" class="cls-1" d="M456.65,475.1c-7.21,10.63-3.01,22.77,0,27.52-.95-4.27,2.66-17.93,24.67-38.43,22.01-20.5,9.17-37.95,0-44.12v24.67c-5.22,5.69-17.46,19.73-24.67,30.36Z"/>
            <path id="_x32_" class="cls-1" d="M462.35,370.25c-17.08,17.84-10.91,40.64-5.69,49.82.79-4.27,3.04-14.9,5.69-23.25,2.66-8.35,9.96-15.66,18.98-22.77,29.89-36.53,13.76-60.25,0-69.27v29.89c.79,4.43-1.9,17.74-18.98,35.58Z"/>
            <path id="Cabeza_1" class="cls-1" d="M431.04,257.33c-7.21,32.26,14.07,53.61,25.62,60.25v-27.04c-11.77-6.45-9.96-29.57-7.59-38.9.47,1.9,5.03,5.03,19.45,2.37,14.42-2.66,10.12-10.28,6.17-13.76-11.54-7.75-36.44-15.18-43.65,17.08Z"/>
          </g>
        </g>
      </g>
      <g id="Manos">
        <path id="Mano_Izquierda" class="cls-3" d="M231.42,663.81c-14.36-10.3-36.43-48.35-42.19-60.2l-.19-.4c-5.83-11.99-10.71-22.02-15.74-29.8-5.09-7.88-9.92-12.77-15.28-15.04-4.33-1.84-9.61-2.21-16.68-.17l36.92,104.79c5.76,15.59,17.89,40.97,38.74,53.23,13.66,8.04,33.22,18.08,51.95,27.79.67.35,1.33.69,2,1.04,18.14,9.4,36.2,18.79,48.2,25.75l35.6-60.54c-2.34-10.9-5.92-18.67-10.1-24.47-4.4-6.1-9.63-10.25-15.31-13.6-1.77-1.04-5.51-2.3-10.92-3.66-5.23-1.32-11.47-2.6-17.84-3.85-1.98-.39-3.98-.78-5.96-1.16-4.33-.84-8.57-1.66-12.36-2.45-5.42-1.13-10.36-2.29-13.45-3.48-2.97-1.14-7.39-3.64-12.01-6.26-.2-.11-.4-.23-.6-.34-5.04-2.85-10.67-6.03-16.19-8.64-5.6-2.65-14.7-8.91-20.31-3.62-6.95,7.83,1.25,14.9,6.97,20.64,5.51,5.53,13.08,11.45,21.63,17.3,17.07,11.68,37.46,22.69,51.6,29.32M397.99,713.92l-25.2-14.82c-4.46-2.62-10.2-1.13-12.82,3.33l-41.6,70.73c-2.62,4.46-1.13,10.2,3.33,12.82l25.2,14.82c4.46,2.62,10.2,1.13,12.82-3.33l41.6-70.73c2.62-4.46,1.13-10.2-3.33-12.82Z"/>
        <path id="Mano_Izquierda-2" data-name="Mano_Izquierda" class="cls-3" d="M638.1,705.99c14.13-6.64,34.53-17.64,51.6-29.32,8.55-5.85,16.11-11.77,21.63-17.3,5.72-5.75,13.92-12.81,6.97-20.64-5.61-5.29-14.72.96-20.31,3.62-5.51,2.61-11.14,5.79-16.19,8.64-.2.11-.4.23-.6.34-4.62,2.62-9.04,5.12-12.01,6.26-3.09,1.19-8.03,2.35-13.45,3.48-3.79.79-8.03,1.61-12.36,2.45-1.98.38-3.98.77-5.96,1.16-6.37,1.25-12.61,2.54-17.84,3.85-5.41,1.36-9.15,2.62-10.92,3.66-5.68,3.34-10.92,7.5-15.31,13.6-4.18,5.8-7.76,13.57-10.1,24.47l35.6,60.54c12-6.96,30.06-16.35,48.2-25.75.67-.35,1.33-.69,2-1.04,18.73-9.71,38.28-19.75,51.95-27.79,20.85-12.26,32.98-37.64,38.74-53.23l36.92-104.79c-7.07-2.04-12.35-1.66-16.68.17-5.37,2.28-10.19,7.17-15.28,15.04-5.02,7.78-9.9,17.81-15.74,29.8l-.19.4c-5.76,11.85-27.83,49.9-42.19,60.2M536.66,726.75l41.6,70.73c2.62,4.46,8.36,5.95,12.82,3.33l25.2-14.82c4.46-2.62,5.95-8.36,3.33-12.82l-41.6-70.73c-2.62-4.46-8.36-5.95-12.82-3.33l-25.2,14.82c-4.46,2.62-5.95,8.36-3.33,12.82Z"/>
      </g>
    </g>
  </g>
</svg>